<?xml version="1.0" encoding="UTF-8"?>
<svg width="11px" height="14px" viewBox="0 0 11 14" version="1.1" xmlns="http://www.w3.org/2000/svg" xmlns:xlink="http://www.w3.org/1999/xlink">
    <!-- Generator: Sketch 48.1 (47250) - http://www.bohemiancoding.com/sketch -->
    <title>Shape</title>
    <desc>Created with Sketch.</desc>
    <defs></defs>
    <g id="Landing-Page" stroke="none" stroke-width="1" fill="none" fill-rule="evenodd" transform="translate(-33.000000, -827.000000)">
        <g id="Group-9" transform="translate(25.000000, 786.000000)" fill="#D70000">
            <g id="Group-4" transform="translate(0.000000, 35.000000)">
                <path d="M16.9375,7.4 L19,7.4 L19,20 L14.875,20 L14.875,18.6 L12.125,18.6 L12.125,20 L8,20 L8,7.4 L10.0625,7.4 L10.0625,6 L16.9375,6 L16.9375,7.4 Z M13.0769231,16.5 L13.0769231,14.75 L11.3846154,14.75 L11.3846154,16.5 L13.0769231,16.5 Z M13.0769231,13.875 L13.0769231,12.125 L11.3846154,12.125 L11.3846154,13.875 L13.0769231,13.875 Z M13.0769231,11.25 L13.0769231,9.5 L11.3846154,9.5 L11.3846154,11.25 L13.0769231,11.25 Z M15.6153846,16.5 L15.6153846,14.75 L13.9230769,14.75 L13.9230769,16.5 L15.6153846,16.5 Z M15.6153846,13.875 L15.6153846,12.125 L13.9230769,12.125 L13.9230769,13.875 L15.6153846,13.875 Z M15.6153846,11.25 L15.6153846,9.5 L13.9230769,9.5 L13.9230769,11.25 L15.6153846,11.25 Z" id="Shape"></path>
            </g>
        </g>
    </g>
</svg>