<?xml version="1.0" encoding="UTF-8"?>
<svg width="16px" height="16px" viewBox="0 0 16 16" version="1.1" xmlns="http://www.w3.org/2000/svg" xmlns:xlink="http://www.w3.org/1999/xlink">
    <!-- Generator: Sketch 48.1 (47250) - http://www.bohemiancoding.com/sketch -->
    <title>Shape</title>
    <desc>Created with Sketch.</desc>
    <defs></defs>
    <g id="Landing-Page" stroke="none" stroke-width="1" fill="none" fill-rule="evenodd" transform="translate(-344.000000, -120.000000)">
        <path d="M351.2,132 L352.8,132 L352.8,127.2 L351.2,127.2 L351.2,132 L351.2,132 Z M352,120 C347.6,120 344,123.6 344,128 C344,132.4 347.6,136 352,136 C356.4,136 360,132.4 360,128 C360,123.6 356.4,120 352,120 L352,120 Z M352,134.4 C348.48,134.4 345.6,131.52 345.6,128 C345.6,124.48 348.48,121.6 352,121.6 C355.52,121.6 358.4,124.48 358.4,128 C358.4,131.52 355.52,134.4 352,134.4 L352,134.4 Z M351.2,125.6 L352.8,125.6 L352.8,124 L351.2,124 L351.2,125.6 L351.2,125.6 Z" id="Shape" fill="#E70000"></path>
    </g>
</svg>