<?xml version="1.0" encoding="UTF-8"?>
<svg width="10px" height="17px" viewBox="0 0 10 17" version="1.1" xmlns="http://www.w3.org/2000/svg" xmlns:xlink="http://www.w3.org/1999/xlink">
    <!-- Generator: Sketch 48.1 (47250) - http://www.bohemiancoding.com/sketch -->
    <title>Shape</title>
    <desc>Created with Sketch.</desc>
    <defs></defs>
    <g id="Landing-Page" stroke="none" stroke-width="1" fill="none" fill-rule="evenodd" transform="translate(-109.000000, -867.000000)">
        <g id="Group-12" transform="translate(101.000000, 862.000000)" fill="#D70000">
            <g id="Group-11" transform="translate(8.000000, 2.000000)">
                <path d="M1.5,16 C-0.954545455,16 -3,13.9545455 -3,11.5 C-3,9.04545455 -0.954545455,7 1.5,7 L10.0909091,7 C11.8909091,7 13.3636364,8.47272727 13.3636364,10.2727273 C13.3636364,12.0727273 11.8909091,13.5454545 10.0909091,13.5454545 L3.13636364,13.5454545 C1.99090909,13.5454545 1.09090909,12.6454545 1.09090909,11.5 C1.09090909,10.3545455 1.99090909,9.45454545 3.13636364,9.45454545 L9.27272727,9.45454545 L9.27272727,10.6818182 L3.13636364,10.6818182 C2.64545455,10.6818182 2.31818182,11.0090909 2.31818182,11.5 C2.31818182,11.9909091 2.64545455,12.3181818 3.13636364,12.3181818 L10.0909091,12.3181818 C11.2363636,12.3181818 12.1363636,11.4181818 12.1363636,10.2727273 C12.1363636,9.12727273 11.2363636,8.22727273 10.0909091,8.22727273 L1.5,8.22727273 C-0.3,8.22727273 -1.77272727,9.7 -1.77272727,11.5 C-1.77272727,13.3 -0.3,14.7727273 1.5,14.7727273 L9.27272727,14.7727273 L9.27272727,16 L1.5,16 L1.5,16 Z" id="Shape" transform="translate(5.181818, 11.500000) rotate(-270.000000) translate(-5.181818, -11.500000) "></path>
            </g>
        </g>
    </g>
</svg>