<?xml version="1.0" encoding="UTF-8"?>
<svg width="11px" height="16px" viewBox="0 0 11 16" version="1.1" xmlns="http://www.w3.org/2000/svg" xmlns:xlink="http://www.w3.org/1999/xlink">
    <!-- Generator: Sketch 48.1 (47250) - http://www.bohemiancoding.com/sketch -->
    <title>2I Copy</title>
    <desc>Created with Sketch.</desc>
    <defs></defs>
    <g id="Landing-Page" stroke="none" stroke-width="1" fill="none" fill-rule="evenodd" transform="translate(-33.000000, -962.000000)">
        <g id="Group-8" transform="translate(25.000000, 922.000000)" fill="#D70000">
            <g id="Group-5" transform="translate(0.000000, 35.000000)">
                <path d="M13.4104955,11.9646665 C12.5986201,11.9646665 11.9382814,11.3023207 11.9382814,10.4894418 C11.9382814,9.67990801 12.5986201,9.0175622 13.4104955,9.0175622 C14.2223709,9.0175622 14.8830441,9.67990801 14.8830441,10.4894418 C14.8830441,11.3023207 14.2223709,11.9646665 13.4104955,11.9646665 Z M13.4104955,8.01400794 C12.0453272,8.01400794 10.9347272,9.12460799 10.9347272,10.4894418 C10.9347272,11.8576207 12.0453272,12.9682208 13.4104955,12.9682208 C14.7759983,12.9682208 15.8865984,11.8576207 15.8865984,10.4894418 C15.8865984,9.12460799 14.7759983,8.01400794 13.4104955,8.01400794 Z M18.8878946,9.90403512 C18.5961949,7.11080912 16.2415221,5 13.4104955,5 C10.4272632,5 8,7.4286013 8,10.4125026 C8,11.0347063 8.10068994,11.6569099 8.3070876,12.3092202 C8.47702279,12.8477943 8.71453063,13.2692871 8.81588961,13.4499268 L8.83897136,13.490069 C8.83964039,13.4934142 8.84064395,13.4934142 8.84131298,13.4967594 L12.9625758,20.7457663 C13.0512231,20.9029898 13.2161405,21 13.3954422,21 C13.3967803,21 13.3977838,21 13.3991219,21 C13.576751,21 13.7413339,20.9063349 13.8316538,20.7524566 C13.8687853,20.6888982 17.5394522,14.4401004 17.7234372,14.1323437 C18.0549446,13.6171859 18.5132344,12.6604641 18.6661091,12.0616768 C18.8822078,11.2086557 18.9527911,10.5262388 18.8878946,9.90403512 Z" id="2I-Copy"></path>
            </g>
        </g>
    </g>
</svg>